<?xml version="1.0" encoding="UTF-8"?>
<!-- Generator: Adobe Illustrator 14.0.0, SVG Export Plug-In . SVG Version: 6.00 Build 43363)  -->
<!DOCTYPE svg PUBLIC "-//W3C//DTD SVG 1.0//EN" "http://www.w3.org/TR/2001/REC-SVG-20010904/DTD/svg10.dtd">
<svg version="1.0" id="Ebene_1" xmlns="http://www.w3.org/2000/svg" xmlns:xlink="http://www.w3.org/1999/xlink" x="0px" y="0px" width="96.911px" height="96.913px" viewBox="0 0 96.911 96.913" enable-background="new 0 0 96.911 96.913" xml:space="preserve">
<rect fill="#00305E" width="96.911" height="96.913"/>
<path fill-rule="evenodd" clip-rule="evenodd" fill="#FFFFFF" d="M16.127,40.681h20.088v23.4h24.552v-23.4h20.016v20.521  L61.199,80.786H35.711L16.127,61.202V40.681L16.127,40.681z M78.624,42.912H63v23.399H33.983V42.912H18.359v17.425l18.288,18.215  h23.688l18.216-18.215L78.624,42.912L78.624,42.912z M78.191,36.216L60.335,18.36H36.647L18.792,36.216h21.888v23.4h15.624v-23.4  H78.191L78.191,36.216z M80.783,38.448H58.535v23.4H38.447v-23.4h-22.32v-2.736l19.584-19.584h25.488l19.584,19.584V38.448  L80.783,38.448z M11.664,33.984v28.944l22.32,22.32H63l22.248-22.32V33.984L63,11.664H33.983L11.664,33.984L11.664,33.984z   M13.896,34.848v27.215l20.952,20.953h27.216l20.952-20.953V34.848L62.063,13.896H34.847L13.896,34.848"/>
</svg>